<svg width="252" height="57" viewBox="0 0 252 57" fill="none" xmlns="http://www.w3.org/2000/svg">
<path d="M40 16.3L32.7 7.4L30.7 4.1L32.3 0L22.6 8.2L29.9 17L31.9 20.3L30.3 24.4L40 16.3Z" fill="#D500FF"/>
<path d="M25.9 12.3L14.5 12.5L10.7 12L8.60001 8.2L8.89999 20.9L20.3 20.7L24.1 21.2L26.2 25L25.9 12.3Z" fill="#D500FF"/>
<path d="M14 20.9L7.10001 30L4.39999 32.8L0 32.1L10.1 39.7L17 30.6L19.7 27.9L24.1 28.6L14 20.9Z" fill="#D500FF"/>
<path d="M13.3 35.6L16 46.7L16.5 50.5L13.2 53.5L25.4 50.3L22.6 39.2L22.1 35.4L25.4 32.5L13.3 35.6Z" fill="#D500FF"/>
<path d="M24.3 45.3L34.6 50.1L37.9 52.2L38.2 56.6L43.3 45L32.9 40.2L29.6 38.2L29.3 33.8L24.3 45.3Z" fill="#D500FF"/>
<path d="M38.7 42.7L48.9 37.6L52.5 36.3L56.1 38.8L50.3 27.6L40.1 32.7L36.4 34L32.8 31.5L38.7 42.7Z" fill="#D500FF"/>
<path d="M45.7 29.8L48 18.6L49.3 14.9L53.5 13.7L41.1 11.2L38.8 22.4L37.5 26.1L33.3 27.3L45.7 29.8Z" fill="#D500FF"/>
<path d="M87.8864 24.1591H82.2045C82.1288 23.5758 81.9735 23.0492 81.7386 22.5795C81.5038 22.1098 81.1932 21.7083 80.8068 21.375C80.4205 21.0417 79.9621 20.7879 79.4318 20.6136C78.9091 20.4318 78.3295 20.3409 77.6932 20.3409C76.5644 20.3409 75.5909 20.6174 74.7727 21.1705C73.9621 21.7235 73.3371 22.5227 72.8977 23.5682C72.4659 24.6136 72.25 25.8788 72.25 27.3636C72.25 28.9091 72.4697 30.2045 72.9091 31.25C73.3561 32.2879 73.9811 33.072 74.7841 33.6023C75.5947 34.125 76.553 34.3864 77.6591 34.3864C78.2803 34.3864 78.8447 34.3068 79.3523 34.1477C79.8674 33.9886 80.3182 33.7576 80.7045 33.4545C81.0985 33.1439 81.4205 32.7689 81.6705 32.3295C81.928 31.8826 82.1061 31.3788 82.2045 30.8182L87.8864 30.8523C87.7879 31.8826 87.4886 32.8977 86.9886 33.8977C86.4962 34.8977 85.8182 35.8106 84.9545 36.6364C84.0909 37.4545 83.0379 38.1061 81.7955 38.5909C80.5606 39.0758 79.1439 39.3182 77.5455 39.3182C75.4394 39.3182 73.553 38.8561 71.8864 37.9318C70.2273 37 68.9167 35.6439 67.9545 33.8636C66.9924 32.0833 66.5114 29.9167 66.5114 27.3636C66.5114 24.803 67 22.6326 67.9773 20.8523C68.9545 19.072 70.2765 17.7197 71.9432 16.7955C73.6098 15.8712 75.4773 15.4091 77.5455 15.4091C78.9545 15.4091 80.2576 15.6061 81.4545 16C82.6515 16.3864 83.7045 16.9545 84.6136 17.7045C85.5227 18.447 86.2614 19.3598 86.8295 20.4432C87.3977 21.5265 87.75 22.7652 87.8864 24.1591ZM113.071 27.3636C113.071 29.9242 112.579 32.0947 111.594 33.875C110.609 35.6553 109.276 37.0076 107.594 37.9318C105.92 38.8561 104.041 39.3182 101.957 39.3182C99.8665 39.3182 97.9839 38.8523 96.3097 37.9205C94.6354 36.9886 93.3059 35.6364 92.321 33.8636C91.3438 32.0833 90.8551 29.9167 90.8551 27.3636C90.8551 24.803 91.3438 22.6326 92.321 20.8523C93.3059 19.072 94.6354 17.7197 96.3097 16.7955C97.9839 15.8712 99.8665 15.4091 101.957 15.4091C104.041 15.4091 105.92 15.8712 107.594 16.7955C109.276 17.7197 110.609 19.072 111.594 20.8523C112.579 22.6326 113.071 24.803 113.071 27.3636ZM107.321 27.3636C107.321 25.8485 107.105 24.5682 106.673 23.5227C106.249 22.4773 105.635 21.6856 104.832 21.1477C104.037 20.6098 103.079 20.3409 101.957 20.3409C100.844 20.3409 99.8854 20.6098 99.0824 21.1477C98.2794 21.6856 97.6619 22.4773 97.2301 23.5227C96.8059 24.5682 96.5938 25.8485 96.5938 27.3636C96.5938 28.8788 96.8059 30.1591 97.2301 31.2045C97.6619 32.25 98.2794 33.0417 99.0824 33.5795C99.8854 34.1174 100.844 34.3864 101.957 34.3864C103.079 34.3864 104.037 34.1174 104.832 33.5795C105.635 33.0417 106.249 32.25 106.673 31.2045C107.105 30.1591 107.321 28.8788 107.321 27.3636ZM116.355 39V15.7273H125.969C127.711 15.7273 129.215 16.0682 130.48 16.75C131.753 17.4242 132.734 18.3674 133.423 19.5795C134.113 20.7841 134.457 22.1856 134.457 23.7841C134.457 25.3902 134.105 26.7955 133.401 28C132.704 29.197 131.707 30.125 130.412 30.7841C129.116 31.4432 127.579 31.7727 125.798 31.7727H119.866V27.3409H124.753C125.601 27.3409 126.31 27.1932 126.878 26.8977C127.454 26.6023 127.889 26.1894 128.185 25.6591C128.48 25.1212 128.628 24.4962 128.628 23.7841C128.628 23.0644 128.48 22.4432 128.185 21.9205C127.889 21.3902 127.454 20.9811 126.878 20.6932C126.302 20.4053 125.594 20.2614 124.753 20.2614H121.98V39H116.355ZM136.071 15.7273H142.355L147.276 25.4659H147.48L152.401 15.7273H158.685L150.173 31.2273V39H144.582V31.2273L136.071 15.7273ZM180.497 22.7045C180.421 21.8712 180.084 21.2235 179.486 20.7614C178.895 20.2917 178.05 20.0568 176.952 20.0568C176.224 20.0568 175.618 20.1515 175.134 20.3409C174.649 20.5303 174.285 20.7917 174.043 21.125C173.8 21.4508 173.675 21.8258 173.668 22.25C173.652 22.5985 173.721 22.9053 173.872 23.1705C174.031 23.4356 174.259 23.6705 174.554 23.875C174.857 24.072 175.221 24.2462 175.645 24.3977C176.069 24.5492 176.546 24.6818 177.077 24.7955L179.077 25.25C180.228 25.5 181.243 25.8333 182.122 26.25C183.009 26.6667 183.751 27.1629 184.349 27.7386C184.955 28.3144 185.414 28.9773 185.724 29.7273C186.035 30.4773 186.194 31.3182 186.202 32.25C186.194 33.7197 185.823 34.9811 185.088 36.0341C184.353 37.0871 183.296 37.8939 181.918 38.4545C180.546 39.0152 178.891 39.2955 176.952 39.2955C175.005 39.2955 173.308 39.0038 171.861 38.4205C170.414 37.8371 169.289 36.9508 168.486 35.7614C167.683 34.572 167.27 33.0682 167.247 31.25H172.634C172.679 32 172.88 32.625 173.236 33.125C173.592 33.625 174.08 34.0038 174.702 34.2614C175.33 34.5189 176.058 34.6477 176.884 34.6477C177.641 34.6477 178.285 34.5455 178.815 34.3409C179.353 34.1364 179.766 33.8523 180.054 33.4886C180.342 33.125 180.49 32.7083 180.497 32.2386C180.49 31.7992 180.353 31.4242 180.088 31.1136C179.823 30.7955 179.414 30.5227 178.861 30.2955C178.315 30.0606 177.618 29.8447 176.77 29.6477L174.338 29.0795C172.323 28.6174 170.736 27.8712 169.577 26.8409C168.418 25.803 167.842 24.4015 167.849 22.6364C167.842 21.197 168.228 19.9356 169.009 18.8523C169.789 17.7689 170.868 16.9242 172.247 16.3182C173.626 15.7121 175.198 15.4091 176.963 15.4091C178.766 15.4091 180.33 15.7159 181.656 16.3295C182.99 16.9356 184.024 17.7879 184.759 18.8864C185.493 19.9848 185.868 21.2576 185.884 22.7045H180.497ZM188.281 20.2955V15.7273H207.952V20.2955H200.895V39H195.349V20.2955H188.281ZM212.827 39H206.781L214.634 15.7273H222.122L229.974 39H223.929L218.463 21.5909H218.281L212.827 39ZM212.02 29.8409H224.656V34.1136H212.02V29.8409ZM232.48 39V15.7273H242.094C243.836 15.7273 245.34 16.0417 246.605 16.6705C247.878 17.2917 248.859 18.1856 249.548 19.3523C250.238 20.5114 250.582 21.8864 250.582 23.4773C250.582 25.0909 250.23 26.4621 249.526 27.5909C248.821 28.7121 247.821 29.5682 246.526 30.1591C245.23 30.7424 243.696 31.0341 241.923 31.0341H235.844V26.6023H240.878C241.726 26.6023 242.435 26.4924 243.003 26.2727C243.579 26.0455 244.014 25.7045 244.31 25.25C244.605 24.7879 244.753 24.197 244.753 23.4773C244.753 22.7576 244.605 22.1629 244.31 21.6932C244.014 21.2159 243.579 20.8598 243.003 20.625C242.427 20.3826 241.719 20.2614 240.878 20.2614H238.105V39H232.48ZM245.582 28.3636L251.378 39H245.241L239.56 28.3636H245.582Z" fill="white"/>
</svg>
